<svg width="146" height="153" viewBox="0 0 146 153" fill="none" xmlns="http://www.w3.org/2000/svg">
<circle cx="73" cy="73" r="73" fill="#E0F0F2"/>
<circle cx="73" cy="73" r="73" fill="url(#paint0_linear_349:348)"/>
<mask id="mask0_349:348" style="mask-type:alpha" maskUnits="userSpaceOnUse" x="47" y="54" width="99" height="99">
<path d="M140.04 135.148L108.098 108.626C112.783 102.307 114.904 94.451 114.036 86.6335C113.168 78.8161 109.375 71.6163 103.419 66.4793C97.4625 61.3423 89.7836 58.6483 81.9234 58.9382C74.0633 59.228 66.6037 62.4802 61.042 68.042C55.4802 73.6037 52.228 81.0633 51.9382 88.9234C51.6483 96.7836 54.3423 104.462 59.4793 110.419C64.6163 116.375 71.8161 120.168 79.6335 121.036C87.451 121.904 95.3074 119.783 101.626 115.098L128.148 147.04C131.357 150.716 143.716 138.357 140.04 135.148ZM65.0708 108.074C61.5104 104.513 59.0858 99.9773 58.1035 95.0389C57.1212 90.1006 57.6253 84.9818 59.5522 80.33C61.479 75.6781 64.742 71.7022 68.9286 68.9048C73.1151 66.1074 78.0372 64.6143 83.0723 64.6143C88.1074 64.6143 93.0294 66.1074 97.216 68.9048C101.403 71.7022 104.666 75.6781 106.592 80.33C108.519 84.9818 109.023 90.1006 108.041 95.0389C107.059 99.9773 104.634 104.513 101.074 108.074C96.2958 112.841 89.8218 115.518 83.0723 115.518C76.3227 115.518 69.8488 112.841 65.0708 108.074V108.074Z" fill="black"/>
<path d="M94.1893 71.745C92.5428 70.7416 90.7674 69.9671 88.912 69.4425C85.2415 68.4086 81.3618 68.3705 77.6717 69.3321C73.9816 70.2938 70.614 72.2206 67.915 74.9145C66.6076 76.2161 65.4785 77.6851 64.5571 79.2833C64.428 79.5082 64.3444 79.7562 64.3112 80.0134C64.278 80.2705 64.2958 80.5317 64.3636 80.782C64.4314 81.0323 64.5478 81.2667 64.7063 81.4719C64.8648 81.6772 65.0621 81.8491 65.2871 81.978C65.5121 82.1069 65.7603 82.1902 66.0175 82.2231C66.2747 82.256 66.5359 82.2379 66.786 82.1698C67.0362 82.1017 67.2705 81.9849 67.4756 81.8262C67.6806 81.6675 67.8523 81.4699 67.9809 81.2447C68.7287 79.9495 69.6448 78.759 70.7053 77.7044C72.9077 75.5056 75.6559 73.9331 78.6674 73.1485C81.6789 72.3639 84.845 72.3956 87.8402 73.2401C89.3507 73.6672 90.796 74.2979 92.1364 75.1148C92.5832 75.3853 93.119 75.4675 93.6264 75.3435C94.1337 75.2195 94.5712 74.8995 94.8429 74.4534C95.1146 74.0074 95.1984 73.4718 95.0759 72.9641C94.9534 72.4564 94.6346 72.018 94.1893 71.745L94.1893 71.745Z" fill="black"/>
</mask>
<g mask="url(#mask0_349:348)">
<rect x="47" y="48.5193" width="102.759" height="115.09" fill="#15AFAF"/>
</g>
<defs>
<linearGradient id="paint0_linear_349:348" x1="2.22881e-06" y1="15.7838" x2="118.378" y2="139.095" gradientUnits="userSpaceOnUse">
<stop offset="0.0947037" stop-color="white"/>
<stop offset="1" stop-color="white" stop-opacity="0"/>
</linearGradient>
</defs>
</svg>